<?xml version="1.0" standalone="no"?>
<!DOCTYPE svg PUBLIC "-//W3C//DTD SVG 20010904//EN" "http://www.w3.org/TR/2001/REC-SVG-20010904/DTD/svg10.dtd">
<svg fill="#fa0505" version="1.0" xmlns="http://www.w3.org/2000/svg" width="534.000000pt" height="221.000000pt"
  viewBox="0 0 534.000000 221.000000" preserveAspectRatio="xMidYMid meet">

  <g transform="translate(0.000000,221.000000) scale(0.100000,-0.100000)" stroke="none">
    <path d="M3942 2158 c-62 -86 -160 -256 -300 -523 -180 -344 -206 -402 -204
-450 1 -30 -14 -71 -60 -168 -55 -114 -64 -128 -84 -123 -34 9 -76 -55 -104
-156 -11 -44 -17 -50 -68 -75 -45 -22 -69 -27 -126 -27 -39 1 -84 7 -101 14
l-30 14 30 3 c170 19 295 186 225 301 -21 34 -72 62 -112 62 -13 0 -41 -9 -64
-19 -101 -46 -164 -139 -164 -244 0 -51 -2 -58 -17 -53 -10 3 -40 11 -68 17
-76 19 -138 47 -132 62 41 93 59 150 71 228 24 157 6 397 -39 506 -21 52 -21
54 -4 180 25 196 29 260 15 272 -6 5 -17 6 -24 2 -11 -7 -62 -146 -88 -240
l-9 -34 -29 43 c-42 64 -152 170 -226 218 -91 59 -194 96 -340 122 -69 12
-159 28 -200 37 -153 30 -470 24 -470 -9 0 -10 5 -10 215 -13 165 -2 199 -5
315 -25 30 -6 75 -13 100 -16 93 -12 217 -48 288 -82 39 -20 72 -39 72 -44 0
-4 7 -8 15 -8 20 0 174 -153 215 -214 l33 -49 -33 -126 c-90 -344 -94 -389
-49 -516 38 -105 39 -138 7 -202 -26 -53 -59 -68 -109 -51 -32 11 -33 15 -19
52 23 63 17 258 -11 319 -27 60 -77 37 -103 -48 -33 -103 -16 -233 38 -293 19
-21 19 -24 4 -50 -31 -52 -72 -67 -178 -66 -120 2 -218 34 -255 83 -51 67 4
251 104 351 54 54 93 67 229 75 94 6 132 13 132 26 0 5 -15 10 -32 10 -18 1
-42 2 -53 3 -51 3 -184 -14 -216 -28 -58 -24 -126 -102 -172 -196 -38 -77 -42
-92 -42 -162 0 -74 1 -78 33 -111 42 -43 129 -73 239 -82 107 -9 178 10 223
61 28 33 34 35 56 25 47 -21 103 -14 135 18 16 16 29 38 29 48 1 22 29 74 30
54 0 -8 12 -29 26 -48 24 -32 26 -73 4 -73 -5 0 -11 -8 -14 -17 -8 -26 -105
-123 -174 -175 -143 -108 -376 -184 -653 -213 -74 -8 -187 -23 -250 -34 -179
-29 -189 -31 -336 -37 -76 -3 -165 -9 -198 -14 -33 -5 -169 -8 -303 -7 -179 2
-246 -1 -253 -9 -7 -8 -6 -14 1 -19 13 -8 449 -4 558 6 45 4 135 10 200 13 64
4 191 18 282 31 91 13 212 29 270 35 152 16 385 65 492 105 51 19 124 56 163
82 90 60 209 178 254 252 8 12 20 10 73 -12 35 -14 93 -31 129 -38 38 -8 74
-22 89 -35 47 -42 104 -57 189 -51 43 3 92 12 109 21 41 21 42 21 31 -16 -11
-39 -6 -44 25 -30 26 12 75 94 134 227 22 50 66 144 97 210 55 117 57 119 73
99 43 -54 119 -71 179 -41 16 9 53 40 82 69 l52 53 -21 -54 c-77 -198 -92
-271 -65 -301 10 -11 25 -20 34 -20 30 0 87 48 112 94 13 25 28 46 33 46 8 0
4 -79 -11 -227 -4 -49 -3 -53 16 -53 17 0 21 6 22 33 0 17 2 39 4 47 1 8 6 65
9 125 6 92 5 113 -8 130 -16 20 -16 19 -43 -12 -16 -17 -40 -49 -55 -72 -31
-45 -72 -76 -88 -66 -19 12 -1 82 63 243 47 119 58 155 48 165 -9 9 -28 -5
-84 -66 -85 -92 -120 -117 -166 -117 -47 0 -115 54 -107 86 9 35 306 656 363
759 28 50 74 126 102 169 28 43 51 85 51 92 0 27 -20 14 -58 -38z m-1367 -380
c-4 -51 -10 -111 -14 -133 l-6 -40 -23 33 -23 32 32 100 c18 55 35 100 37 100
2 0 1 -42 -3 -92z m-46 -197 c19 -36 19 -39 0 -156 -24 -145 -79 -428 -85
-434 -8 -8 -15 6 -39 75 -33 96 -28 140 47 416 22 81 44 145 49 142 5 -3 18
-22 28 -43z m1107 -23 c-60 -135 -170 -358 -174 -354 -9 10 25 89 105 244 85
162 113 208 69 110z m-1041 -165 c15 -87 22 -304 12 -348 -3 -11 -10 -42 -16
-70 -15 -65 -51 -165 -61 -165 -15 0 -63 85 -63 110 1 20 21 147 47 290 5 26
33 196 40 240 3 14 5 32 5 40 2 38 21 -14 36 -97z m-344 -413 c0 -99 -11 -165
-25 -165 -5 0 -18 18 -30 40 -33 64 -23 223 18 274 20 26 38 -46 37 -149z
m832 -20 c15 -17 21 -35 20 -70 -2 -108 -106 -190 -238 -186 -37 1 -40 3 -48
40 -19 80 43 193 126 231 45 20 113 13 140 -15z" />
    <path d="M1617 1863 c-18 -43 -120 -301 -174 -438 -19 -49 -61 -151 -93 -225
-33 -74 -75 -191 -96 -260 -20 -69 -52 -168 -70 -221 -38 -106 -41 -129 -20
-129 19 0 62 114 116 300 22 79 63 199 91 265 63 152 71 172 108 271 16 44 46
116 66 160 73 159 121 314 97 314 -5 0 -16 -17 -25 -37z" />
    <path d="M3988 1369 c-27 -15 -22 -39 7 -39 14 0 25 -3 25 -7 0 -5 4 -14 9
-22 8 -12 12 -12 25 -2 21 18 20 44 -2 64 -21 19 -39 21 -64 6z" />
  </g>
</svg>
